name processed_emg_signals
nRows=73
nColumns=7
 
endheader
time	LGLTMED	LRF	LADDLONG	LST	LTA	LGM
0.64	0.0419298122728746	0.3437076644206858	0.2486470360435132	0.1221860820997991	0.1677812949623436	0.0439969976021798
0.641	0.0419131819483188	0.3428436035433496	0.2450686413839038	0.1292420781202662	0.1670897252983627	0.0437218853958015
0.642	0.0419121558770539	0.3419392836183798	0.2416892348707174	0.1364594804244476	0.1664537374662849	0.0434510289873349
0.643	0.0419271967470549	0.3409955382876478	0.2385065209658128	0.1438359033883843	0.1658739397263065	0.0431847702381188
0.644	0.041958770011752	0.3400132650895049	0.2355180222091246	0.1513687525383699	0.1653509782349992	0.0429234500854326
0.645	0.0420073435648105	0.3389934257359092	0.2327210870276108	0.1590552240718963	0.1648855381799161	0.0426674082723357
0.646	0.0420733873981922	0.33793704633618	0.2301128976883836	0.1668923046636282	0.1644783447420008	0.0424169830812384
0.647	0.0421573732443773	0.3368452175679122	0.2276904783813014	0.1748767715618856	0.1641301638805674	0.0421725110716227
0.648	0.0422597742036092	0.3357190947946094	0.2254507034167577	0.1830051929805372	0.163841802936468	0.0419343268222231
0.649	0.0423810643570538	0.3345598981302318	0.2233903055242686	0.1912739287906841	0.1636141110499897	0.0417027626778825
0.65	0.042521718366681	0.3333689124501303	0.2215058842370164	0.1996791315159255	0.1634479793908951	0.041478148501274
0.651	0.0426822110626195	0.3321474873486065	0.2197939143472909	0.208216747634415	0.1633443411984576	0.0412608114295531
0.652	0.0428630170186798	0.3308970370429482	0.2182507544174801	0.216882519190471	0.1633041716298836	0.0410510756359262
0.653	0.0430646101166784	0.3296190402239859	0.2168726553299896	0.2256719857178527	0.1633284874157737	0.0408492620961439
0.654	0.0432874631001591	0.3283150398525325	0.2156557688592028	0.2345804864764463	0.1634183463215597	0.0406556883597596
0.655	0.0435320471179842	0.3269866429007449	0.2145961562481503	0.2436031630034618	0.1635748464142006	0.040470668326082
0.656	0.0437988312583416	0.3256355200365424	0.2136897967712878	0.2527349619797295	0.1637991251336193	0.0402945120246616
0.657	0.0440882820735468	0.3242634052495111	0.212932596264765	0.2619706384110583	0.1640923581689837	0.040127525400111
0.658	0.0444008630961457	0.3228720954158022	0.2123203956048048	0.2713047591239291	0.1644557581407201	0.0399700101012745
0.659	0.0447370343468311	0.3214634498001099	0.2118489791146428	0.2807317065742192	0.1648905730901155	0.0398222632746282
0.66	0.0450972518347798	0.3200393894925511	0.2115140828805128	0.2902456829669763	0.1653980847794889	0.0396845773620486
0.661	0.0454819670511909	0.3186018967785033	0.2113114029574653	0.2998407146847828	0.1659796068070602	0.0395572399029464
0.662	0.0458916264568645	0.3171530144387385	0.2112366034470134	0.3095106570217386	0.1666364825423791	0.0394405333408246
0.663	0.0463266709648805	0.3156948449767823	0.2112853244298836	0.3192491992195407	0.1673700828900231	0.0393347348342638
0.664	0.0467875354193311	0.3142295497697255	0.211453189738693	0.3290498698016083	0.1681818038909859	0.0392401160722369
0.665	0.0472746480712775	0.3127593481376242	0.2117358145564765	0.3389060422004321	0.1690730641723098	0.0391569430935781
0.666	0.0477884300530401	0.3112865163271535	0.2121288128285764	0.3488109406727173	0.1700453022560971	0.0390854761103776
0.667	0.0483292948518723	0.309813386404863	0.2126278044759702	0.3587576464960544	0.1710999737389093	0.039025969335047
0.668	0.0488976477842912	0.3083423450561392	0.2132284223999044	0.3687391044403673	0.1722385483526194	0.0389786708107366
0.669	0.0494938854720886	0.3068758322863651	0.2139263192686199	0.3787481295068238	0.1734625069174892	0.0389438222448747
0.67	0.0501183953213692	0.3054163400212031	0.2147171740788322	0.3887774139265524	0.1747733381982437	0.0389216588455825
0.671	0.0507715550057972	0.3039664106032196	0.2155966984856661	0.3988195344109851	0.1761725356737857	0.0389124091607252
0.672	0.0514537319553274	0.3025286351829503	0.2165606428966214	0.4088669596448808	0.177661594231072	0.0389162949193712
0.673	0.0521652828517285	0.301105652002886	0.2176048023257432	0.4189120580120966	0.1792420067936599	0.0389335308753875
0.674	0.0529065531322222	0.2997001445741804	0.2187250220058771	0.4289471055430955	0.180915260895231	0.0389643246529371
0.675	0.0536778765026831	0.2983148397464455	0.2199172027564192	0.4389642940723287	0.1826828352082602	0.0390088765937494
0.676	0.0544795744619712	0.2969525056718666	0.2211773061053054	0.4489557395931297	0.1845461960376468	0.0390673796060217
0.677	0.055311955839139	0.295615949665186	0.2225013591639713	0.4589134907972006	0.1865067937887812	0.0391400190149727
0.678	0.0561753163453247	0.2943080159616422	0.2238854592539091	0.4688295377853251	0.1885660594190122	0.0392269724151198
0.679	0.0570699381422715	0.2930315833753844	0.2253257782841619	0.4786958209352819	0.1907254008810766	0.0393284095243541
0.68	0.0579960894293886	0.2917895628603728	0.2268185668792122	0.488504239912262	0.1929861995665348	0.0394444920399098
0.681	0.0589540240512164	0.2905848949762424	0.2283601582571807	0.4982466628063952	0.195349806756757	0.0395753734962924
0.682	0.0599439811271299	0.2894205472607408	0.2299469718591821	0.5079149353811652	0.1978175400885785	0.0397211991252372
0.683	0.0609661847050223	0.2882995115111748	0.231575516731092	0.5175008904161601	0.2003906800411556	0.0398821057176637
0.684	0.062020843440529	0.2872248009766746	0.2332423946592823	0.526996357127254	0.2030704664500299	0.0400582214875652
0.685	0.0631081503035017	0.286199447464133	0.2349443030622069	0.5363931706473604	0.2058580950539071	0.0402496659377201
0.686	0.06422828231313	0.2852264983606052	0.2366780376395818	0.545683181550802	0.2087547140791195	0.0404565497270301
0.687	0.0653814003032739	0.2843090135749794	0.2384404947811756	0.5548582654046911	0.2117614208663923	0.0406789745392403
0.6880000000000001	0.0665676487193129	0.2834500624023101	0.2402286737372437	0.5639103323316311	0.2148792585440788	0.0409170329528783
0.6890000000000001	0.0677871554477571	0.2826527203137197	0.2420396785522656	0.5728313365694206	0.2181092127516843	0.0411708083122828
0.6900000000000001	0.0690400316797141	0.2819200656760632	0.2438707197640194	0.5816132860149477	0.2214522084171815	0.0414403745996789
0.6910000000000001	0.0703263718090598	0.2812551764054931	0.2457191158700759	0.5902482517412785	0.2249091065913443	0.0417257963084576
0.6920000000000001	0.0716462533662153	0.2806611265599273	0.247582294563594	0.5987283774786726	0.22848070134205	0.0420271283178312
0.6930000000000001	0.0729997369881125	0.280140982876304	0.2494577937405164	0.6070458890517845	0.2321677167113419	0.0423444157692022
0.6940000000000001	0.0743868664250958	0.2796978012585401	0.2513432622796586	0.6151931037663202	0.2359708037377989	0.0426776939445001
0.6950000000000001	0.0758076685851884	0.2793346232223183	0.2532364605972646	0.6231624397394832	0.2398905375466649	0.0430269881467949
0.6960000000000001	0.0772621536162277	0.2790544723026523	0.255135260976979	0.6309464251694009	0.2439274145101065	0.043392313583415
0.6970000000000001	0.0787503150260331	0.2788603504303393	0.2570376476758795	0.6385377075395062	0.2480818494799773	0.0437736752517385
0.6980000000000001	0.0802721298408533	0.278755234283232	0.2589417168077381	0.6459290627542578	0.2523541730952871	0.0441710678278095
0.6990000000000001	0.0818275588020152	0.2787420716189748	0.260845676004663	0.6531134042029553	0.2567446291665655	0.0445844755577678
0.7000000000000001	0.0834165466007966	0.2788237775962591	0.262747843859917	0.6600837917485198	0.261253372138978	0.0450138721520811
0.7010000000000001	0.0850390221511423	0.2790032310920649	0.2646466491547405	0.6668334406378578	0.2658804646361049	0.0454592206825738
0.7020000000000001	0.0866948988998944	0.2792832710227946	0.2665406298731111	0.6733557303295699	0.270625875086001	0.0459204734821711
0.7030000000000001	0.088384075173854	0.279666692677024	0.2684284320095537	0.6796442132334657	0.2754894754313657	0.046397572047376
0.704	0.090106434562912	0.2801562440674894	0.2703088081759656	0.6856926233547959	0.280471038925394	0.0468904469433371
0.705	0.0918618463384908	0.2807546223095932	0.2721806160149276	0.6914948848345123	0.2855702380151014	0.0473990177114178
0.706	0.0936501659063691	0.2814644700326629	0.2740428164276157	0.6970451203750947	0.2907866423135894	0.0479231927789487
0.707	0.0954712352930852	0.2822883718296052	0.2758944716254086	0.7023376595398221	0.2961197166627806	0.0484628693709269
0.708	0.0973248836649431	0.2832288507498672	0.2777347430137665	0.7073670469117392	0.3015688192877701	0.0490179334233043
0.709	0.0992109278786499	0.2842883648400507	0.2795628889178826	0.7121280500976197	0.3071332000439944	0.0495882594976637
0.71	0.1011291730624202	0.2854693037355603	0.281378262158645	0.7166156675619165	0.3128119987584286	0.0501737106971151
0.711	0.1030794132262351	0.2867739853068227	0.2831803074885171	0.720825136275771	0.3186042436661342	0.050774138583425
0.712	0.105061431899674	0.2882046523622107	0.2849685588954139	0.7247519391665391	0.3245088499433276	0.0513893830955174
